<svg xmlns="http://www.w3.org/2000/svg" viewBox="0 0 200.54 43.39">
  <path
    d="m17.98,31.03c-.11.08-.25.07-.41-.02L.34,22.56c-.22-.13-.34-.32-.34-.58v-2.3c0-.26.11-.45.34-.58l17.23-8.45.24-.1c.1,0,.18.04.24.12.06.08.1.18.1.31v2.35c0,.26-.11.45-.34.58l-14.3,6.77c-.13.1-.13.19,0,.29l14.3,6.77c.22.13.34.32.34.58v2.35c0,.16-.06.28-.17.36Z" />
  <path
    d="m22.32,33.6V.96c0-.32.16-.48.48-.48h2.45c.32,0,.48.16.48.48v32.64c0,.32-.16.48-.48.48h-2.45c-.32,0-.48-.16-.48-.48Z" />
  <path
    d="m43.78,11.59c1.34,1.46,2.02,3.4,2.02,5.83v16.18c0,.32-.16.48-.48.48h-2.45c-.32,0-.48-.16-.48-.48v-1.44c0-.06-.02-.1-.07-.12-.05-.02-.1,0-.17.07-1.18,1.57-2.96,2.35-5.33,2.35-1.76,0-3.29-.5-4.58-1.51-1.3-1.01-1.94-2.79-1.94-5.35,0-2.72.78-4.71,2.35-5.98,1.57-1.26,3.63-1.9,6.19-1.9h3.36c.13,0,.19-.06.19-.19v-1.87c0-1.6-.37-2.88-1.1-3.84-.74-.96-1.73-1.44-2.98-1.44-.96,0-1.78.32-2.47.96-.69.64-1.1,1.46-1.22,2.45,0,.32-.16.48-.48.48l-2.69-.05c-.16,0-.28-.05-.36-.14-.08-.1-.1-.21-.07-.34.16-1.89.93-3.42,2.3-4.58,1.38-1.17,3.07-1.75,5.09-1.75,2.24,0,4.03.73,5.38,2.18Zm-2.83,18.62c.96-.85,1.44-2.02,1.44-3.53v-4.03c0-.13-.06-.19-.19-.19h-3.41c-1.54,0-2.75.41-3.65,1.22-.9.82-1.34,2.02-1.34,3.62,0,1.41.34,2.46,1.03,3.14.69.69,1.59,1.03,2.71,1.03,1.31,0,2.45-.42,3.41-1.27Z" />
  <path
    d="m49.73,20.16v-2.02c0-.32.16-.48.48-.48h10.99c.32,0,.48.16.48.48v2.02c0,.32-.16.48-.48.48h-10.99c-.32,0-.48-.16-.48-.48Z" />
  <path
    d="m79.53,11.45c1.22,1.36,1.82,3.13,1.82,5.3v10.37c0,2.24-.61,4.02-1.82,5.35-1.22,1.33-2.83,1.99-4.85,1.99-.9,0-1.74-.17-2.54-.5-.8-.34-1.5-.86-2.11-1.56-.06-.06-.12-.08-.17-.05-.05.03-.07.08-.07.14v10.42c0,.32-.16.48-.48.48h-2.45c-.32,0-.48-.16-.48-.48V10.27c0-.32.16-.48.48-.48h2.45c.32,0,.48.16.48.48v1.1c0,.06.03.1.1.12.06.02.13,0,.19-.07.58-.67,1.27-1.18,2.09-1.51s1.66-.5,2.52-.5c2.02,0,3.63.68,4.85,2.04Zm-2.71,2.21c-.78-.85-1.78-1.27-3-1.27s-2.15.42-2.9,1.27c-.75.85-1.13,1.96-1.13,3.34v9.89c0,1.38.38,2.49,1.13,3.34.75.85,1.72,1.27,2.9,1.27s2.22-.42,3-1.27c.78-.85,1.18-1.96,1.18-3.34v-9.89c0-1.38-.39-2.49-1.18-3.34Z" />
  <path
    d="m86.81,4.61c-.5-.51-.74-1.15-.74-1.92s.25-1.45.74-1.94c.5-.5,1.14-.74,1.94-.74s1.4.25,1.9.74c.5.5.74,1.14.74,1.94s-.25,1.41-.74,1.92c-.5.51-1.13.77-1.9.77s-1.45-.26-1.94-.77Zm.26,28.99V10.27c0-.32.16-.48.48-.48h2.45c.32,0,.48.16.48.48v23.33c0,.32-.16.48-.48.48h-2.45c-.32,0-.48-.16-.48-.48Z" />
  <path
    d="m97.7,32.62c-1.33-1.14-1.99-2.65-1.99-4.54v-.34c0-.32.16-.48.48-.48h2.3c.32,0,.48.16.48.48v.29c0,1.02.38,1.89,1.13,2.59.75.7,1.74,1.06,2.95,1.06,1.15,0,2.08-.35,2.78-1.06.7-.7,1.06-1.6,1.06-2.69,0-.83-.22-1.53-.67-2.09-.45-.56-.97-1-1.56-1.32-.59-.32-1.48-.74-2.66-1.25-1.25-.51-2.28-1.02-3.1-1.51-.82-.5-1.52-1.2-2.11-2.11-.59-.91-.89-2.07-.89-3.48,0-2.05.63-3.66,1.9-4.85,1.26-1.18,2.97-1.78,5.11-1.78s3.9.61,5.18,1.82c1.28,1.22,1.92,2.83,1.92,4.85v.14c0,.32-.16.48-.48.48h-2.21c-.32,0-.48-.16-.48-.48v-.29c0-1.09-.36-1.98-1.08-2.69-.72-.7-1.66-1.06-2.81-1.06s-2.07.36-2.76,1.08c-.69.72-1.03,1.61-1.03,2.66,0,.77.21,1.42.62,1.94.42.53.93.96,1.54,1.3.61.34,1.46.74,2.54,1.22,1.31.58,2.39,1.12,3.24,1.63.85.51,1.59,1.23,2.23,2.16.64.93.96,2.08.96,3.46,0,1.98-.66,3.57-1.97,4.75-1.31,1.18-3.09,1.78-5.33,1.78s-3.98-.57-5.3-1.7Z" />
  <path
    d="m116.13,32.45c-1.36-1.34-2.04-3.12-2.04-5.33v-10.37c0-2.18.69-3.94,2.06-5.3,1.38-1.36,3.18-2.04,5.42-2.04,1.5,0,2.83.3,3.98.91,1.15.61,2.04,1.42,2.66,2.42s.94,2.12.94,3.34v.48c0,.32-.16.48-.48.48l-2.45.1c-.32,0-.48-.16-.48-.48v-.34c0-1.06-.39-1.97-1.18-2.76-.78-.78-1.78-1.18-3-1.18s-2.2.42-2.95,1.27c-.75.85-1.13,1.96-1.13,3.34v9.89c0,1.38.38,2.49,1.13,3.34.75.85,1.74,1.27,2.95,1.27s2.22-.39,3-1.18c.78-.78,1.18-1.7,1.18-2.76v-.34c0-.32.16-.48.48-.48l2.45.05c.32,0,.48.16.48.48v.53c0,1.92-.7,3.51-2.09,4.78-1.39,1.26-3.22,1.9-5.5,1.9s-4.09-.67-5.45-2.02Z" />
  <path
    d="m134.04,4.61c-.5-.51-.74-1.15-.74-1.92s.25-1.45.74-1.94c.5-.5,1.14-.74,1.94-.74s1.4.25,1.9.74c.5.5.74,1.14.74,1.94s-.25,1.41-.74,1.92c-.5.51-1.13.77-1.9.77s-1.45-.26-1.94-.77Zm.26,28.99V10.27c0-.32.16-.48.48-.48h2.45c.32,0,.48.16.48.48v23.33c0,.32-.16.48-.48.48h-2.45c-.32,0-.48-.16-.48-.48Z" />
  <path
    d="m157.08,11.47c1.07,1.34,1.61,3.22,1.61,5.62v16.51c0,.32-.16.48-.48.48h-2.45c-.32,0-.48-.16-.48-.48v-16.22c0-1.57-.34-2.78-1.03-3.65-.69-.86-1.64-1.3-2.86-1.3-1.28,0-2.28.46-3,1.39-.72.93-1.08,2.19-1.08,3.79v15.98c0,.32-.16.48-.48.48h-2.45c-.32,0-.48-.16-.48-.48V10.27c0-.32.16-.48.48-.48h2.45c.32,0,.48.16.48.48v1.54c0,.06.03.11.1.14.06.03.11,0,.14-.1.58-.8,1.3-1.4,2.18-1.8.88-.4,1.82-.6,2.81-.6,1.95,0,3.46.67,4.54,2.02Z" />
  <path
    d="m178.27,23.23h-10.94c-.13,0-.19.06-.19.19v3.5c0,1.34.38,2.44,1.13,3.29.75.85,1.74,1.27,2.95,1.27,1.02,0,1.9-.31,2.62-.94.72-.62,1.19-1.43,1.42-2.42.1-.29.27-.43.53-.43l2.4.1c.13,0,.24.05.34.14.1.1.13.22.1.38-.26,1.89-1.03,3.38-2.33,4.49-1.3,1.1-2.98,1.66-5.06,1.66-2.27,0-4.09-.67-5.45-2.02-1.36-1.34-2.04-3.12-2.04-5.33v-10.37c0-2.18.68-3.94,2.04-5.3,1.36-1.36,3.18-2.04,5.45-2.04s4.14.68,5.5,2.04c1.36,1.36,2.04,3.13,2.04,5.3v6c0,.32-.16.48-.48.48Zm-10.01-9.58c-.75.85-1.13,1.96-1.13,3.34v3.22c0,.13.06.19.19.19h7.87c.13,0,.19-.06.19-.19v-3.22c0-1.38-.38-2.49-1.15-3.34-.77-.85-1.78-1.27-3.02-1.27s-2.2.42-2.95,1.27Z" />
  <path
    d="m182.73,31.1c-.1,0-.18-.04-.24-.12-.06-.08-.1-.18-.1-.31v-2.35c0-.26.11-.45.34-.58l14.3-6.77c.13-.1.13-.19,0-.29l-14.3-6.77c-.22-.13-.34-.32-.34-.58v-2.35c0-.16.06-.28.17-.36.11-.08.25-.07.41.02l17.23,8.45c.22.13.34.32.34.58v2.3c0,.26-.11.45-.34.58l-17.23,8.45-.24.1Z" />
  <style>
    path {
      fill: #000;
    }

    @media (prefers-color-scheme: dark) {
      path {
        fill: #FFF;
      }
    }
  </style>
</svg>