<svg version="1.1" id="Layer_1" xmlns="http://www.w3.org/2000/svg" xmlns:xlink="http://www.w3.org/1999/xlink" x="0px" y="0px"
	 width="100%" viewBox="0 0 192 192" enable-background="new 0 0 192 192" xml:space="preserve">
<path fill="#FEFEFE" opacity="1.000000" stroke="none" 
	d="
M103.000000,193.000000 
	C68.666672,193.000000 34.833336,193.000000 1.000005,193.000000 
	C1.000003,129.000000 1.000003,65.000015 1.000002,1.000013 
	C64.999992,1.000009 128.999985,1.000009 192.999969,1.000004 
	C192.999985,64.999985 192.999985,128.999969 193.000000,192.999969 
	C163.166672,193.000000 133.333328,193.000000 103.000000,193.000000 
M74.905754,174.289627 
	C77.126289,173.587234 79.489693,173.153839 81.512711,172.079514 
	C82.688759,171.454956 83.318672,169.801956 84.194321,168.611725 
	C83.758232,168.277786 83.322136,167.943832 82.886047,167.609879 
	C81.443008,168.358673 80.055122,169.256363 78.542274,169.816666 
	C76.840759,170.446869 75.050499,170.935684 73.256699,171.199554 
	C68.411575,171.912323 66.656448,170.552307 66.661247,165.685425 
	C66.683411,143.209137 73.328285,122.143661 80.054298,101.143372 
	C101.640656,104.227005 119.480232,97.556580 133.918762,82.435059 
	C146.215469,69.556656 151.953415,54.015518 147.931976,36.161095 
	C145.056671,23.395199 134.964355,18.856974 123.602966,25.249191 
	C117.472000,28.698641 112.306862,33.867908 106.720261,38.279339 
	C105.428093,39.299690 104.194313,40.393978 102.933670,41.454243 
	C104.628998,35.202724 107.245239,29.693964 109.043274,23.929972 
	C109.837402,21.384228 110.031197,17.273651 108.561745,15.787413 
	C107.096909,14.305844 102.553413,14.094087 100.501793,15.288044 
	C93.371941,19.437305 86.698936,24.383894 79.965034,29.185501 
	C79.129257,29.781450 78.971672,31.328506 78.499832,32.434845 
	C84.146904,30.067730 87.189270,24.393763 94.962540,23.649704 
	C93.619446,28.229033 92.843857,32.031952 91.407600,35.566402 
	C85.706726,49.595669 79.888855,63.579468 73.912239,77.493301 
	C72.194695,81.491829 69.798294,85.198753 67.649704,89.156242 
	C67.227402,92.038338 67.045334,95.475113 66.172646,98.726524 
	C64.837120,103.702347 62.919621,108.518562 61.434608,113.458282 
	C55.818993,132.137985 50.702137,150.927048 50.101177,170.600662 
	C49.926792,176.309509 51.794018,178.389374 57.511642,177.741669 
	C63.104233,177.108139 68.603119,175.647385 74.905754,174.289627 
z"/>
<path fill="#212226" opacity="1.000000" stroke="none" 
	d="
M74.524445,174.419678 
	C68.603119,175.647385 63.104233,177.108139 57.511642,177.741669 
	C51.794018,178.389374 49.926792,176.309509 50.101177,170.600662 
	C50.702137,150.927048 55.818993,132.137985 61.434608,113.458282 
	C62.919621,108.518562 64.837120,103.702347 66.172646,98.726524 
	C67.045334,95.475113 67.227402,92.038338 67.649704,89.156242 
	C69.798294,85.198753 72.194695,81.491829 73.912239,77.493301 
	C79.888855,63.579468 85.706726,49.595669 91.407600,35.566402 
	C92.843857,32.031952 93.619446,28.229033 94.962540,23.649704 
	C87.189270,24.393763 84.146904,30.067730 78.499832,32.434845 
	C78.971672,31.328506 79.129257,29.781450 79.965034,29.185501 
	C86.698936,24.383894 93.371941,19.437305 100.501793,15.288044 
	C102.553413,14.094087 107.096909,14.305844 108.561745,15.787413 
	C110.031197,17.273651 109.837402,21.384228 109.043274,23.929972 
	C107.245239,29.693964 104.628998,35.202724 102.933670,41.454243 
	C104.194313,40.393978 105.428093,39.299690 106.720261,38.279339 
	C112.306862,33.867908 117.472000,28.698641 123.602966,25.249191 
	C134.964355,18.856974 145.056671,23.395199 147.931976,36.161095 
	C151.953415,54.015518 146.215469,69.556656 133.918762,82.435059 
	C119.480232,97.556580 101.640656,104.227005 80.054298,101.143372 
	C73.328285,122.143661 66.683411,143.209137 66.661247,165.685425 
	C66.656448,170.552307 68.411575,171.912323 73.256699,171.199554 
	C75.050499,170.935684 76.840759,170.446869 78.542274,169.816666 
	C80.055122,169.256363 81.443008,168.358673 82.886047,167.609879 
	C83.322136,167.943832 83.758232,168.277786 84.194321,168.611725 
	C83.318672,169.801956 82.688759,171.454956 81.512711,172.079514 
	C79.489693,173.153839 77.126289,173.587234 74.524445,174.419678 
M84.108406,92.908424 
	C98.187096,99.512115 115.618362,94.524933 124.527344,81.121384 
	C131.627701,70.438927 133.821548,58.451183 132.681717,45.873020 
	C132.242996,41.031944 130.809616,36.124920 125.596947,34.117958 
	C120.148499,32.020222 116.005501,35.085144 112.126701,38.410339 
	C110.994820,39.380672 109.947006,40.465996 108.960632,41.586609 
	C96.046783,56.257935 88.881500,73.819084 84.108406,92.908424 
z"/>
<path fill="#FBFBFB" opacity="1.000000" stroke="none" 
	d="
M83.815178,92.596275 
	C88.881500,73.819084 96.046783,56.257935 108.960632,41.586609 
	C109.947006,40.465996 110.994820,39.380672 112.126701,38.410339 
	C116.005501,35.085144 120.148499,32.020222 125.596947,34.117958 
	C130.809616,36.124920 132.242996,41.031944 132.681717,45.873020 
	C133.821548,58.451183 131.627701,70.438927 124.527344,81.121384 
	C115.618362,94.524933 98.187096,99.512115 83.815178,92.596275 
z"/>
</svg>