<?xml version="1.0" standalone="no"?>
<!DOCTYPE svg PUBLIC "-//W3C//DTD SVG 20010904//EN"
 "http://www.w3.org/TR/2001/REC-SVG-20010904/DTD/svg10.dtd">
<svg version="1.0" xmlns="http://www.w3.org/2000/svg"
 width="310.000000pt" height="310.000000pt" viewBox="0 0 310.000000 310.000000"
 preserveAspectRatio="xMidYMid meet">
<metadata>
Created by potrace 1.14, written by Peter Selinger 2001-2017
</metadata>
<g transform="translate(0.000000,310.000000) scale(0.100000,-0.100000)"
fill="#000000" stroke="none">
<path d="M1620 2876 c-104 -39 -226 -117 -317 -205 -56 -53 -63 -68 -37 -78
10 -4 32 10 62 40 127 123 202 129 172 15 -7 -24 -56 -148 -111 -275 -107
-252 -191 -457 -233 -569 -23 -60 -32 -73 -62 -88 -38 -18 -38 -14 -18 -92 4
-13 -19 -99 -54 -205 -132 -403 -191 -654 -218 -924 -16 -167 -13 -207 19
-230 42 -29 180 -16 354 34 123 35 157 51 161 75 7 35 -13 38 -68 9 -36 -18
-72 -28 -115 -31 -84 -6 -95 9 -95 128 0 215 69 554 184 905 27 83 36 100 52
97 209 -29 383 1 574 99 253 129 429 344 495 603 54 214 21 413 -87 512 -48
45 -88 58 -163 52 -134 -11 -295 -117 -440 -289 -37 -44 -69 -78 -71 -76 -2 2
12 39 32 82 75 163 124 297 124 340 0 73 -56 102 -140 71z m412 -317 c29 -15
65 -71 83 -127 24 -72 16 -272 -14 -387 -84 -315 -310 -493 -601 -472 -82 6
-170 37 -170 61 0 14 81 241 115 321 40 95 131 266 180 340 98 147 222 263
296 278 29 6 87 -1 111 -14z"/>
</g>
</svg>
